#!OML:ASF F:\VICON\USERDATA\INSTALL\SteveWalk\SteveWalk.ASF
:FULLY-SPECIFIED
:DEGREES
1
root -1.38564 16.4458 -46.053 18.7853 3.78409 -0.0634604
lowerback -15.786 0.00962422 2.6385
upperback -5.13812 -0.492872 2.45149
thorax 3.38784 -0.23526 0.993987
lowerneck -2.22259 -0.558403 2.25354
upperneck 6.78041 -0.352724 -7.60677
head 2.55621 -0.338711 -2.89698
rclavicle -2.07481e-014 2.78299e-014
rhumerus -36.8566 -28.0324 -70.749
rradius 20.2833
rwrist 9.34469
rhand -16.2304 -36.204
rfingers 7.12502
rthumb 9.97786 -65.9475
lclavicle -2.07481e-014 2.78299e-014
lhumerus -36.6657 3.72805 84.5799
lradius 28.2867
lwrist -5.61852
lhand -18.4335 -17.3354
lfingers 7.12502
lthumb 7.8519 12.4988
rfemur -37.3675 -1.57229 25.035
rtibia 38.3574
rfoot -20.5466 1.65821
rtoes -12.6911
lfemur -39.4671 4.39618 -21.1286
ltibia 74.7522
lfoot -0.896082 -0.841332
ltoes 3.46605
2
root -1.34647 16.4767 -45.799 18.2711 2.08134 -0.234491
lowerback -16.4426 0.577099 2.6191
upperback -4.44107 0.193569 2.5579
thorax 4.47648 0.112666 1.25712
lowerneck -2.49267 -0.47436 1.81275
upperneck 6.73961 -0.223573 -7.55729
head 2.59743 -0.28878 -2.79738
rclavicle 7.82715e-015 -2.8625e-014
rhumerus -34.1552 -24.836 -73.4087
rradius 21.5318
rwrist 6.27946
rhand -16.338 -36.526
rfingers 7.12502
rthumb 9.87409 -66.2745
lclavicle 7.82715e-015 -2.8625e-014
lhumerus -36.1803 4.86498 84.8217
lradius 26.2207
lwrist -6.94407
lhand -16.4883 -17.5835
lfingers 7.12502
lthumb 9.72908 12.1718
rfemur -35.4234 -0.979908 24.7595
rtibia 37.469
rfoot -21.0205 2.50242
rtoes -13.1433
lfemur -39.7254 5.763 -21.814
ltibia 73.6532
lfoot -4.51532 0.390048
ltoes -9.22791
3
root -1.33768 16.5111 -45.5492 17.2831 2.46025 0.134433
lowerback -14.6723 0.394993 2.60635
upperback -4.90442 0.0662907 2.24395
thorax 3.0388 0.0380565 0.888697
lowerneck -2.43268 -0.399636 1.80983
upperneck 7.5439 -0.0986146 -7.22934
head 2.86081 -0.229843 -2.69634
rclavicle -6.33626e-015 2.38542e-015
rhumerus -33.798 -21.7481 -75.4689
rradius 22.9612
rwrist 3.69765
rhand -16.4242 -36.5459
rfingers 7.12502
rthumb 9.79089 -66.2983
lclavicle -6.33626e-015 2.38542e-015
lhumerus -37.5716 5.428 84.0562
lradius 24.6262
lwrist -8.74274
lhand -14.9772 -17.7448
lfingers 7.12502
lthumb 11.1868 11.937
rfemur -32.9514 -1.655 24.4604
rtibia 36.9818
rfoot -21.8052 2.34944
rtoes -13.0579
lfemur -39.4205 5.32376 -22.129
ltibia 72.3856
lfoot -4.7718 1.42222
ltoes -7.77906
4
root -1.35275 16.5247 -45.3317 16.5599 3.83723 0.638528
lowerback -15.3914 0.317261 2.01991
upperback -4.81768 0.0459808 1.70926
thorax 3.51702 0.0317543 0.660458
lowerneck 0.961368 -1.03976 2.9441
upperneck 6.11354 -1.04629 -7.3455
head 1.71724 -0.591378 -2.89226
rclavicle -9.77772e-015 1.74931e-014
rhumerus -33.7954 -20.6398 -76.8557
rradius 24.51
rwrist 1.35317
rhand -16.6328 -36.7024
rfingers 7.12502
rthumb 9.58962 -66.4641
lclavicle -9.77772e-015 1.74931e-014
lhumerus -38.1974 4.53654 83.5528
lradius 22.8572
lwrist -10.6613
lhand -14.7146 -17.3917
lfingers 7.12502
lthumb 11.44 12.2762
rfemur -30.8975 -2.73044 24.3124
rtibia 36.5855
rfoot -22.3982 1.70086
rtoes -12.3427
lfemur -39.7779 4.12426 -22.2404
ltibia 71.2622
lfoot -5.58442 1.93509
ltoes -7.57231
5
root -1.35784 16.519 -45.1393 16.9017 3.71319 0.652421
lowerback -14.6499 -0.0252144 1.67706
upperback -4.71522 -0.351769 2.0634
thorax 3.2306 -0.165445 1.15319
lowerneck -1.99979 -0.554392 2.27547
upperneck 7.26389 -0.338894 -7.3136
head 2.67541 -0.326182 -2.80673
rclavicle -1.50331e-015 1.66979e-014
rhumerus -30.958 -17.2902 -78.9814
rradius 25.4974
rwrist -0.965052
rhand -16.6508 -37.0082
rfingers 7.12502
rthumb 9.57233 -66.7707
lclavicle -1.50331e-015 1.66979e-014
lhumerus -38.4485 7.17346 82.8087
lradius 21.9057
lwrist -13.1182
lhand -14.4569 -16.5928
lfingers 7.12502
lthumb 11.6886 13.0611
rfemur -30.4435 -3.11528 24.4396
rtibia 36.3589
rfoot -22.8396 2.21395
rtoes -11.3291
lfemur -41.5423 4.17141 -22.4636
ltibia 70.1911
lfoot -6.34927 2.52097
ltoes -8.50721
6
root -1.34192 16.499 -44.9572 17.8759 1.97619 0.123252
lowerback -14.4262 0.672387 2.04551
upperback -4.88124 0.530385 1.99132
thorax 2.93093 0.268741 1.01599
lowerneck -4.5728 -0.426681 2.35259
upperneck 8.41327 -0.125957 -7.22684
head 3.57175 -0.278061 -2.84823
rclavicle 1.90336e-014 1.27222e-014
rhumerus -28.9706 -15.3588 -80.4695
rradius 26.6882
rwrist -2.36953
rhand -15.8422 -37.341
rfingers 7.12502
rthumb 10.3524 -67.0661
lclavicle 1.90336e-014 1.27222e-014
lhumerus -38.5034 8.39865 82.095
lradius 20.6857
lwrist -15.6096
lhand -13.5838 -16.259
lfingers 7.12502
lthumb 12.5304 13.3453
rfemur -30.9843 -2.7794 24.7871
rtibia 36.2424
rfoot -23.2591 3.85317
rtoes -9.86172
lfemur -44.0752 5.55079 -22.7588
ltibia 69.1677
lfoot -6.71044 3.5036
ltoes -6.87091
7
root -1.34397 16.4911 -44.7361 17.5912 2.54936 0.323089
lowerback -16.4468 0.529319 1.5843
upperback -3.98814 0.322591 1.96745
thorax 4.95837 0.172175 1.24858
lowerneck -2.72248 -0.598372 2.43698
upperneck 6.90304 -0.440201 -7.15891
head 2.68287 -0.375081 -2.78958
rclavicle 8.67198e-015 2.14687e-014
rhumerus -27.1907 -14.402 -81.1379
rradius 27.6046
rwrist -2.35869
rhand -14.6353 -35.0008
rfingers 7.12502
rthumb 11.5165 -64.6644
lclavicle 8.67198e-015 2.14687e-014
lhumerus -38.0973 9.63901 81.4657
lradius 19.1466
lwrist -18.2795
lhand -12.2714 -16.8545
lfingers 7.12502
lthumb 13.7955 12.6681
rfemur -29.6842 -3.34916 24.7873
rtibia 36.1553
rfoot -24.0624 3.29403
rtoes -8.94964
lfemur -44.8189 4.98829 -22.849
ltibia 67.7812
lfoot -7.28409 4.0176
ltoes -4.67269
8
root -1.34199 16.4804 -44.5176 17.5375 2.59631 0.311881
lowerback -15.0807 0.946883 1.86233
upperback -5.63334 0.944375 1.34236
thorax 2.49752 0.468837 0.51228
lowerneck 0.581952 -1.07515 3.20031
upperneck 7.0049 -1.08109 -6.86872
head 2.07377 -0.610413 -2.79885
rclavicle -3.8266e-015 -1.35174e-014
rhumerus -29.7913 -14.3828 -80.9293
rradius 28.6863
rwrist -2.07196
rhand -14.0944 -28.595
rfingers 7.12502
rthumb 12.0381 -58.2288
lclavicle -3.8266e-015 -1.35174e-014
lhumerus -41.1325 8.23174 80.4196
lradius 18.4343
lwrist -19.3554
lhand -10.6875 -16.3758
lfingers 7.12502
lthumb 15.3215 13.0366
rfemur -28.7076 -3.8169 24.9313
rtibia 36.1109
rfoot -24.9002 3.10575
rtoes -8.51008
lfemur -45.7239 4.852 -22.9356
ltibia 66.144
lfoot -7.8432 4.75203
ltoes -4.73717
9
root -1.33322 16.4677 -44.3076 17.6452 2.40438 0.410783
lowerback -15.4308 1.45849 1.83338
upperback -6.23719 1.64483 0.828148
thorax 2.06476 0.80977 0.108727
lowerneck 3.51103 -1.66234 3.87073
upperneck 6.21117 -1.8444 -6.79496
head 1.25123 -0.91624 -2.84675
rclavicle -6.93262e-015 -2.38542e-015
rhumerus -30.7002 -11.6749 -82.4751
rradius 31.9782
rwrist -6.94108
rhand -15.3724 -36.0833
rfingers 7.12502
rthumb 10.8056 -65.7854
lclavicle -6.93262e-015 -2.38542e-015
lhumerus -43.4706 7.10706 79.9012
lradius 18.4812
lwrist -20.7136
lhand -9.36753 -15.9111
lfingers 7.12502
lthumb 16.5926 13.3995
rfemur -27.9635 -4.41686 24.9013
rtibia 36.0756
rfoot -25.6659 3.6539
rtoes -8.08476
lfemur -46.7065 4.8101 -23.2695
ltibia 64.1586
lfoot -8.16094 5.69998
ltoes -5.66639
10
root -1.32997 16.4525 -44.0993 17.5565 2.61015 0.667535
lowerback -16.1223 1.55711 1.54854
upperback -6.27712 1.80942 0.572852
thorax 2.39064 0.894084 0.047965
lowerneck 5.71302 -1.95742 4.12108
upperneck 5.1733 -2.21976 -6.69195
head 0.517007 -1.05205 -2.81596
rclavicle -1.45361e-014 -1.63003e-014
rhumerus -30.4649 -10.2068 -83.1625
rradius 33.5571
rwrist -8.11036
rhand -15.2879 -36.5244
rfingers 7.12502
rthumb 10.8871 -66.2221
lclavicle -1.45361e-014 -1.63003e-014
lhumerus -44.8456 7.13281 79.1649
lradius 17.8658
lwrist -22.8043
lhand -8.66056 -16.3805
lfingers 7.12502
lthumb 17.2732 12.8719
rfemur -26.9144 -5.10549 24.7443
rtibia 35.9727
rfoot -26.2202 4.15174
rtoes -7.2821
lfemur -47.2594 4.42083 -23.5478
ltibia 61.8565
lfoot -8.71589 6.22886
ltoes -6.26654
11
root -1.3253 16.4369 -43.8818 17.4155 2.69846 0.768382
lowerback -15.1948 0.493352 0.900701
upperback -5.47054 0.468417 1.57873
thorax 2.71887 0.242142 1.22487
lowerneck 1.0539 -0.793214 2.30724
upperneck 6.46336 -0.727243 -6.61895
head 1.83006 -0.436622 -2.53052
rclavicle -5.24916e-015 -6.36111e-015
rhumerus -26.6597 -5.38231 -84.2213
rradius 34.2907
rwrist -9.29646
rhand -15.0846 -36.3953
rfingers 7.12502
rthumb 11.0832 -66.0826
lclavicle -5.24916e-015 -6.36111e-015
lhumerus -44.4948 11.939 78.0651
lradius 17.2156
lwrist -25.2069
lhand -8.19601 -15.9605
lfingers 7.12502
lthumb 17.7202 13.2521
rfemur -25.7285 -5.80583 24.6965
rtibia 35.7631
rfoot -26.7457 4.48801
rtoes -7.34552
lfemur -47.5567 4.05616 -23.6225
ltibia 59.3454
lfoot -9.4433 6.74385
ltoes -5.442
